<?xml version="1.0" standalone="no"?><svg xmlns="http://www.w3.org/2000/svg" viewBox="0 0 1440 320"><path fill="#fff" fill-opacity="1" d="M0,64L26.7,90.7C53.3,117,107,171,160,192C213.3,213,267,203,320,186.7C373.3,171,427,149,480,149.3C533.3,149,587,171,640,170.7C693.3,171,747,149,800,149.3C853.3,149,907,171,960,192C1013.3,213,1067,235,1120,256C1173.3,277,1227,299,1280,277.3C1333.3,256,1387,192,1413,160L1440,128L1440,320L1413.3,320C1386.7,320,1333,320,1280,320C1226.7,320,1173,320,1120,320C1066.7,320,1013,320,960,320C906.7,320,853,320,800,320C746.7,320,693,320,640,320C586.7,320,533,320,480,320C426.7,320,373,320,320,320C266.7,320,213,320,160,320C106.7,320,53,320,27,320L0,320Z"></path></svg>